<?xml version="1.0" standalone="no"?>
<!DOCTYPE svg PUBLIC "-//W3C//DTD SVG 20010904//EN"
        "http://www.w3.org/TR/2001/REC-SVG-20010904/DTD/svg10.dtd">
<svg version="1.0" xmlns="http://www.w3.org/2000/svg"
     width="501.000000pt" height="176.000000pt" viewBox="0 0 501.000000 176.000000"
     preserveAspectRatio="xMidYMid meet">

    <g transform="translate(0.000000,176.000000) scale(0.100000,-0.100000)"
       fill="#000000" stroke="none">
        <path d="M1203 1240 c-49 -22 -83 -70 -83 -117 l0 -33 -124 0 c-122 0 -124 0
-130 24 -3 14 -18 29 -36 36 -25 11 -34 10 -56 -5 -15 -9 -29 -26 -31 -36 -4
-15 -15 -19 -54 -19 l-49 0 0 -165 0 -166 43 29 c77 53 80 54 121 26 21 -14
39 -24 40 -22 2 1 17 22 33 45 l31 43 43 -34 43 -33 42 51 c23 28 42 55 42 60
0 11 23 26 40 26 21 0 13 -38 -16 -67 -15 -15 -44 -48 -64 -73 -29 -34 -41
-43 -52 -35 -7 6 -28 20 -44 33 l-30 22 -24 -37 c-12 -20 -26 -41 -29 -46 -4
-5 -27 4 -51 21 l-44 30 -62 -39 -62 -39 0 -55 0 -55 575 0 575 0 0 246 c0
154 -4 253 -11 265 -16 31 -56 42 -90 25 -25 -13 -33 -13 -59 0 -27 14 -33 14
-60 0 -27 -13 -33 -13 -60 0 -27 14 -33 14 -60 0 -30 -15 -31 -14 -41 12 -14
37 -48 72 -86 88 -43 19 -70 17 -120 -6z m99 -97 c24 -21 23 -48 -2 -73 -23
-23 -40 -25 -62 -7 -28 21 -31 54 -9 76 25 25 48 27 73 4z m-472 -53 c0 -13
-7 -20 -19 -20 -22 0 -35 15 -26 30 12 19 45 11 45 -10z"/>
        <path d="M3425 1227 c-3 -6 -4 -165 -3 -352 l3 -340 58 -3 57 -3 0 356 0 355
-55 0 c-35 0 -57 -5 -60 -13z"/>
        <path d="M4250 885 l0 -356 58 3 57 3 0 350 0 350 -57 3 -58 3 0 -356z"/>
        <path d="M2150 1180 l0 -50 100 0 100 0 -6 -27 c-13 -57 -92 -111 -187 -128
-28 -6 -37 -11 -33 -22 4 -8 9 -32 12 -54 4 -21 12 -39 19 -39 17 0 135 39
166 56 15 7 40 25 57 39 l30 25 83 -39 c103 -48 166 -68 179 -55 5 5 10 28 12
52 l3 42 -88 30 c-123 42 -127 45 -127 85 l0 35 100 0 100 0 0 50 0 50 -260 0
-260 0 0 -50z"/>
        <path d="M2930 1160 l0 -50 130 0 130 0 0 -60 0 -60 -125 0 -125 0 0 -167 0
-166 164 6 c90 4 186 12 214 17 l49 11 -5 47 c-2 26 -6 48 -7 50 -2 2 -29 -1
-61 -7 -32 -6 -100 -11 -151 -11 l-93 0 0 60 0 60 130 0 130 0 0 160 0 160
-190 0 -190 0 0 -50z"/>
        <path d="M3760 944 l0 -257 158 6 c87 3 179 12 207 20 l50 14 -3 44 c-2 24 -6
47 -10 51 -4 4 -39 2 -77 -6 -39 -8 -100 -17 -137 -21 l-68 -7 0 206 0 206
-60 0 -60 0 0 -256z"/>
        <path d="M2064 806 c-3 -8 -4 -31 -2 -52 l3 -39 137 -3 137 -3 3 -102 3 -102
63 -3 62 -3 0 105 0 105 143 3 142 3 0 50 0 50 -343 3 c-287 2 -343 0 -348
-12z"/>
    </g>
</svg>
